%TF.GenerationSoftware,KiCad,Pcbnew,9.0.2*%
%TF.CreationDate,2025-05-24T18:19:02-05:00*%
%TF.ProjectId,Hack Club PCB,4861636b-2043-46c7-9562-205043422e6b,rev?*%
%TF.SameCoordinates,Original*%
%TF.FileFunction,Copper,L1,Top*%
%TF.FilePolarity,Positive*%
%FSLAX46Y46*%
G04 Gerber Fmt 4.6, Leading zero omitted, Abs format (unit mm)*
G04 Created by KiCad (PCBNEW 9.0.2) date 2025-05-24 18:19:02*
%MOMM*%
%LPD*%
G01*
G04 APERTURE LIST*
%TA.AperFunction,ComponentPad*%
%ADD10C,1.500000*%
%TD*%
%TA.AperFunction,ComponentPad*%
%ADD11C,1.600000*%
%TD*%
%TA.AperFunction,ComponentPad*%
%ADD12R,1.800000X1.800000*%
%TD*%
%TA.AperFunction,ComponentPad*%
%ADD13C,1.800000*%
%TD*%
%TA.AperFunction,SMDPad,CuDef*%
%ADD14R,1.270000X5.080000*%
%TD*%
%TA.AperFunction,SMDPad,CuDef*%
%ADD15C,17.800000*%
%TD*%
%TA.AperFunction,ComponentPad*%
%ADD16R,1.050000X1.500000*%
%TD*%
%TA.AperFunction,ComponentPad*%
%ADD17O,1.050000X1.500000*%
%TD*%
%TA.AperFunction,ViaPad*%
%ADD18C,5.500000*%
%TD*%
%TA.AperFunction,Conductor*%
%ADD19C,0.200000*%
%TD*%
G04 APERTURE END LIST*
D10*
%TO.P,R3,1*%
%TO.N,Net-(Q1-B)*%
X148000000Y-51700000D03*
%TO.P,R3,2*%
%TO.N,Net-(BT1--)*%
X148000000Y-48300000D03*
%TD*%
D11*
%TO.P,R2,1*%
%TO.N,Net-(Q1-E)*%
X126880000Y-106541925D03*
%TO.P,R2,2*%
%TO.N,Net-(D1-A)*%
X134500000Y-106541925D03*
%TD*%
%TO.P,R1,1*%
%TO.N,Net-(BT1-+)*%
X111690000Y-106500000D03*
%TO.P,R1,2*%
%TO.N,Net-(Q1-B)*%
X119310000Y-106500000D03*
%TD*%
D12*
%TO.P,D1,1,K*%
%TO.N,Net-(BT1--)*%
X106960000Y-50000000D03*
D13*
%TO.P,D1,2,A*%
%TO.N,Net-(D1-A)*%
X109500000Y-50000000D03*
%TD*%
D14*
%TO.P,BT1,1,+*%
%TO.N,Net-(BT1-+)*%
X118515000Y-83000000D03*
X140485000Y-83000000D03*
D15*
%TO.P,BT1,2,-*%
%TO.N,Net-(BT1--)*%
X129500000Y-83000000D03*
%TD*%
D16*
%TO.P,Q1,1,E*%
%TO.N,Net-(Q1-E)*%
X144960000Y-106541925D03*
D17*
%TO.P,Q1,2,B*%
%TO.N,Net-(Q1-B)*%
X146230000Y-106541925D03*
%TO.P,Q1,3,C*%
%TO.N,Net-(BT1-+)*%
X147500000Y-106541925D03*
%TD*%
D18*
%TO.N,*%
X130000000Y-60000000D03*
%TD*%
D19*
%TO.N,Net-(BT1--)*%
X143500000Y-69000000D02*
X129500000Y-83000000D01*
X111500000Y-45500000D02*
X112899000Y-46899000D01*
X106960000Y-50000000D02*
X104500000Y-50000000D01*
X112899000Y-66399000D02*
X129500000Y-83000000D01*
X148000000Y-48300000D02*
X148000000Y-46000000D01*
X104000000Y-46500000D02*
X105000000Y-45500000D01*
X144601000Y-55899000D02*
X143500000Y-57000000D01*
X148000000Y-46000000D02*
X147500000Y-45500000D01*
X144601000Y-48399000D02*
X144601000Y-55899000D01*
X112899000Y-46899000D02*
X112899000Y-66399000D01*
X147500000Y-45500000D02*
X144601000Y-48399000D01*
X104000000Y-49500000D02*
X104000000Y-46500000D01*
X105000000Y-45500000D02*
X111500000Y-45500000D01*
X143500000Y-57000000D02*
X143500000Y-69000000D01*
X104500000Y-50000000D02*
X104000000Y-49500000D01*
%TO.N,Net-(BT1-+)*%
X125688821Y-92201000D02*
X134024000Y-92201000D01*
X118515000Y-83000000D02*
X118515000Y-85027179D01*
X134024000Y-92201000D02*
X140485000Y-85740000D01*
X147500000Y-106541925D02*
X147500000Y-90015000D01*
X111690000Y-106500000D02*
X111690000Y-89825000D01*
X118515000Y-85027179D02*
X125688821Y-92201000D01*
X147500000Y-90015000D02*
X140485000Y-83000000D01*
X111690000Y-89825000D02*
X118515000Y-83000000D01*
X140485000Y-85740000D02*
X140485000Y-83000000D01*
%TO.N,Net-(D1-A)*%
X124000000Y-104000000D02*
X116500000Y-111500000D01*
X134500000Y-106541925D02*
X131958075Y-104000000D01*
X116500000Y-111500000D02*
X113000000Y-111500000D01*
X110500000Y-109000000D02*
X110500000Y-51000000D01*
X131958075Y-104000000D02*
X124000000Y-104000000D01*
X110500000Y-51000000D02*
X109500000Y-50000000D01*
X113000000Y-111500000D02*
X110500000Y-109000000D01*
%TO.N,Net-(Q1-B)*%
X150500000Y-74000000D02*
X145000000Y-68500000D01*
X146230000Y-106541925D02*
X146230000Y-105934925D01*
X146230000Y-105934925D02*
X139795075Y-99500000D01*
X122500000Y-99500000D02*
X122500000Y-100000000D01*
X119310000Y-103190000D02*
X119310000Y-106500000D01*
X145000000Y-68500000D02*
X145000000Y-59000000D01*
X147500000Y-110500000D02*
X146230000Y-109230000D01*
X139795075Y-99500000D02*
X122500000Y-99500000D01*
X145000000Y-59000000D02*
X148000000Y-56000000D01*
X122500000Y-100000000D02*
X119310000Y-103190000D01*
X150500000Y-107500000D02*
X150500000Y-74000000D01*
X146230000Y-109230000D02*
X146230000Y-106541925D01*
X150500000Y-107500000D02*
X147500000Y-110500000D01*
X148000000Y-56000000D02*
X148000000Y-51700000D01*
%TO.N,Net-(Q1-E)*%
X128000000Y-110500000D02*
X141001925Y-110500000D01*
X126880000Y-109380000D02*
X128000000Y-110500000D01*
X126880000Y-106541925D02*
X126880000Y-109380000D01*
X141001925Y-110500000D02*
X144960000Y-106541925D01*
%TD*%
M02*
